<svg width="586" height="362" viewBox="0 0 586 362" fill="none" xmlns="http://www.w3.org/2000/svg">
<rect width="484" height="249" fill="#006D77"/>
<g filter="url(#filter0_d_1029_45)">
<path d="M108.807 85.2727H119.318L144.034 145.642H144.886L169.602 85.2727H180.114V158H171.875V102.744H171.165L148.438 158H140.483L117.756 102.744H117.045V158H108.807V85.2727Z" fill="white"/>
</g>
<g filter="url(#filter1_d_1029_45)">
<path d="M191.531 49.5455L236.986 177.741H238.264L283.719 49.5455H297.639L244.727 195H230.523L177.611 49.5455H191.531Z" fill="white"/>
</g>
<g filter="url(#filter2_d_1029_45)">
<path d="M358.33 108H349.523C349.002 105.467 348.09 103.241 346.788 101.324C345.51 99.4062 343.947 97.7964 342.101 96.4943C340.278 95.1686 338.254 94.1742 336.028 93.5114C333.803 92.8485 331.483 92.517 329.068 92.517C324.665 92.517 320.676 93.6297 317.101 95.8551C313.55 98.0805 310.721 101.359 308.614 105.692C306.53 110.024 305.489 115.339 305.489 121.636C305.489 127.934 306.53 133.249 308.614 137.581C310.721 141.913 313.55 145.192 317.101 147.418C320.676 149.643 324.665 150.756 329.068 150.756C331.483 150.756 333.803 150.424 336.028 149.761C338.254 149.098 340.278 148.116 342.101 146.814C343.947 145.488 345.51 143.866 346.788 141.949C348.09 140.008 349.002 137.782 349.523 135.273H358.33C357.667 138.99 356.459 142.316 354.707 145.251C352.955 148.187 350.777 150.685 348.173 152.744C345.569 154.78 342.645 156.331 339.402 157.396C336.182 158.462 332.738 158.994 329.068 158.994C322.866 158.994 317.349 157.479 312.52 154.449C307.69 151.419 303.891 147.11 301.121 141.523C298.351 135.936 296.966 129.307 296.966 121.636C296.966 113.966 298.351 107.337 301.121 101.75C303.891 96.1629 307.69 91.8542 312.52 88.8239C317.349 85.7936 322.866 84.2784 329.068 84.2784C332.738 84.2784 336.182 84.8111 339.402 85.8764C342.645 86.9418 345.569 88.5043 348.173 90.5639C350.777 92.5999 352.955 95.0857 354.707 98.0213C356.459 100.933 357.667 104.259 358.33 108Z" fill="white"/>
</g>
<rect x="3.5" y="4.5" width="477" height="240" stroke="white" stroke-width="7"/>
<rect x="44" y="240" width="397" height="10" fill="#006D77"/>
<g filter="url(#filter3_d_1029_45)">
<rect x="44" y="122" width="102" height="5" fill="#006D77"/>
</g>
<g filter="url(#filter4_d_1029_45)">
<rect x="239" y="122" width="52" height="5" fill="#006D77"/>
</g>
<g filter="url(#filter5_d_1029_45)">
<rect x="135" y="147" width="241" height="5" fill="#006D77"/>
</g>
<g filter="url(#filter6_d_1029_45)">
<rect x="151" y="97" width="216" height="5" fill="#006D77"/>
</g>
<rect x="44" y="1" width="397" height="10" fill="#006D77"/>
<defs>
<filter id="filter0_d_1029_45" x="104.807" y="85.2727" width="79.3066" height="86.7273" filterUnits="userSpaceOnUse" color-interpolation-filters="sRGB">
<feFlood flood-opacity="0" result="BackgroundImageFix"/>
<feColorMatrix in="SourceAlpha" type="matrix" values="0 0 0 0 0 0 0 0 0 0 0 0 0 0 0 0 0 0 127 0" result="hardAlpha"/>
<feOffset dy="10"/>
<feGaussianBlur stdDeviation="2"/>
<feComposite in2="hardAlpha" operator="out"/>
<feColorMatrix type="matrix" values="0 0 0 0 0 0 0 0 0 0 0 0 0 0 0 0 0 0 0.25 0"/>
<feBlend mode="normal" in2="BackgroundImageFix" result="effect1_dropShadow_1029_45"/>
<feBlend mode="normal" in="SourceGraphic" in2="effect1_dropShadow_1029_45" result="shape"/>
</filter>
<filter id="filter1_d_1029_45" x="173.61" y="49.5454" width="128.029" height="159.455" filterUnits="userSpaceOnUse" color-interpolation-filters="sRGB">
<feFlood flood-opacity="0" result="BackgroundImageFix"/>
<feColorMatrix in="SourceAlpha" type="matrix" values="0 0 0 0 0 0 0 0 0 0 0 0 0 0 0 0 0 0 127 0" result="hardAlpha"/>
<feOffset dy="10"/>
<feGaussianBlur stdDeviation="2"/>
<feComposite in2="hardAlpha" operator="out"/>
<feColorMatrix type="matrix" values="0 0 0 0 0 0 0 0 0 0 0 0 0 0 0 0 0 0 0.25 0"/>
<feBlend mode="normal" in2="BackgroundImageFix" result="effect1_dropShadow_1029_45"/>
<feBlend mode="normal" in="SourceGraphic" in2="effect1_dropShadow_1029_45" result="shape"/>
</filter>
<filter id="filter2_d_1029_45" x="292.966" y="84.2784" width="69.3633" height="88.7159" filterUnits="userSpaceOnUse" color-interpolation-filters="sRGB">
<feFlood flood-opacity="0" result="BackgroundImageFix"/>
<feColorMatrix in="SourceAlpha" type="matrix" values="0 0 0 0 0 0 0 0 0 0 0 0 0 0 0 0 0 0 127 0" result="hardAlpha"/>
<feOffset dy="10"/>
<feGaussianBlur stdDeviation="2"/>
<feComposite in2="hardAlpha" operator="out"/>
<feColorMatrix type="matrix" values="0 0 0 0 0 0 0 0 0 0 0 0 0 0 0 0 0 0 0.25 0"/>
<feBlend mode="normal" in2="BackgroundImageFix" result="effect1_dropShadow_1029_45"/>
<feBlend mode="normal" in="SourceGraphic" in2="effect1_dropShadow_1029_45" result="shape"/>
</filter>
<filter id="filter3_d_1029_45" x="34" y="112" width="322" height="225" filterUnits="userSpaceOnUse" color-interpolation-filters="sRGB">
<feFlood flood-opacity="0" result="BackgroundImageFix"/>
<feColorMatrix in="SourceAlpha" type="matrix" values="0 0 0 0 0 0 0 0 0 0 0 0 0 0 0 0 0 0 127 0" result="hardAlpha"/>
<feMorphology radius="10" operator="dilate" in="SourceAlpha" result="effect1_dropShadow_1029_45"/>
<feOffset dx="100" dy="100"/>
<feGaussianBlur stdDeviation="50"/>
<feComposite in2="hardAlpha" operator="out"/>
<feColorMatrix type="matrix" values="0 0 0 0 0 0 0 0 0 0 0 0 0 0 0 0 0 0 0.25 0"/>
<feBlend mode="normal" in2="BackgroundImageFix" result="effect1_dropShadow_1029_45"/>
<feBlend mode="normal" in="SourceGraphic" in2="effect1_dropShadow_1029_45" result="shape"/>
</filter>
<filter id="filter4_d_1029_45" x="229" y="112" width="272" height="225" filterUnits="userSpaceOnUse" color-interpolation-filters="sRGB">
<feFlood flood-opacity="0" result="BackgroundImageFix"/>
<feColorMatrix in="SourceAlpha" type="matrix" values="0 0 0 0 0 0 0 0 0 0 0 0 0 0 0 0 0 0 127 0" result="hardAlpha"/>
<feMorphology radius="10" operator="dilate" in="SourceAlpha" result="effect1_dropShadow_1029_45"/>
<feOffset dx="100" dy="100"/>
<feGaussianBlur stdDeviation="50"/>
<feComposite in2="hardAlpha" operator="out"/>
<feColorMatrix type="matrix" values="0 0 0 0 0 0 0 0 0 0 0 0 0 0 0 0 0 0 0.25 0"/>
<feBlend mode="normal" in2="BackgroundImageFix" result="effect1_dropShadow_1029_45"/>
<feBlend mode="normal" in="SourceGraphic" in2="effect1_dropShadow_1029_45" result="shape"/>
</filter>
<filter id="filter5_d_1029_45" x="125" y="137" width="461" height="225" filterUnits="userSpaceOnUse" color-interpolation-filters="sRGB">
<feFlood flood-opacity="0" result="BackgroundImageFix"/>
<feColorMatrix in="SourceAlpha" type="matrix" values="0 0 0 0 0 0 0 0 0 0 0 0 0 0 0 0 0 0 127 0" result="hardAlpha"/>
<feMorphology radius="10" operator="dilate" in="SourceAlpha" result="effect1_dropShadow_1029_45"/>
<feOffset dx="100" dy="100"/>
<feGaussianBlur stdDeviation="50"/>
<feComposite in2="hardAlpha" operator="out"/>
<feColorMatrix type="matrix" values="0 0 0 0 0 0 0 0 0 0 0 0 0 0 0 0 0 0 0.25 0"/>
<feBlend mode="normal" in2="BackgroundImageFix" result="effect1_dropShadow_1029_45"/>
<feBlend mode="normal" in="SourceGraphic" in2="effect1_dropShadow_1029_45" result="shape"/>
</filter>
<filter id="filter6_d_1029_45" x="141" y="87" width="436" height="225" filterUnits="userSpaceOnUse" color-interpolation-filters="sRGB">
<feFlood flood-opacity="0" result="BackgroundImageFix"/>
<feColorMatrix in="SourceAlpha" type="matrix" values="0 0 0 0 0 0 0 0 0 0 0 0 0 0 0 0 0 0 127 0" result="hardAlpha"/>
<feMorphology radius="10" operator="dilate" in="SourceAlpha" result="effect1_dropShadow_1029_45"/>
<feOffset dx="100" dy="100"/>
<feGaussianBlur stdDeviation="50"/>
<feComposite in2="hardAlpha" operator="out"/>
<feColorMatrix type="matrix" values="0 0 0 0 0 0 0 0 0 0 0 0 0 0 0 0 0 0 0.25 0"/>
<feBlend mode="normal" in2="BackgroundImageFix" result="effect1_dropShadow_1029_45"/>
<feBlend mode="normal" in="SourceGraphic" in2="effect1_dropShadow_1029_45" result="shape"/>
</filter>
</defs>
</svg>
